:SAMPLES-PER-SECOND 30
:FULLY-SPECIFIED
:DEGREES
280
root  -75.9779 40.3454 1.95358 87.869 86.4917 84.3478
RightUpLeg  -2.05943 -10.6101 -4.34409
RightLeg  13.2898 -3.35438 0.816994
RightFoot  -19.6643 0.15485 3.9288
RightToes  9.54606e-009 0 -3.6325e-017
Spine  3.64359 3.33126 7.73639
Spine1  5.18122 4.71095 -5.08891
HEad  -19.96 -5.1046 -8.96319
LeftShoulder1  -0.480995 4.73944 -32.7803
LeftArm  8.70061 20.5251 -38.5079
LeftForeArm  21.8494 -16.1189 -7.18768
LeftHand  -0.0732159 7.23209 -1.97086
RightShoulder  -1.10404 -6.4971 30.3565
RightArm  19.2426 6.25208 45.4895
RightForeArm  14.0763 6.92476 9.21948
RightHand  -0.245309 4.57505 -3.20629
LeftUpLeg  -21.6142 -2.74174 -5.41248
LeftLeg  22.3619 -1.69514 -0.442256
LeftFoot  -5.74933 0.0986728 -1.31024
LeftToes  -8.26734e-010 9.74065e-011 1.64617e-011
281
root  -75.6151 40.3914 1.99576 91.1811 85.9988 87.682
RightUpLeg  -1.36292 -10.6573 -4.80848
RightLeg  12.9439 -3.49068 0.647673
RightFoot  -18.5101 0.0369426 2.60744
RightToes  9.54606e-009 0 -3.6325e-017
Spine  3.76958 3.38828 7.68583
Spine1  5.4937 5.0181 -6.12032
HEad  -19.5311 -5.92003 -8.92711
LeftShoulder1  -0.451333 4.67426 -32.4222
LeftArm  7.77456 22.0594 -38.1224
LeftForeArm  22.359 -15.7724 -7.26557
LeftHand  -0.0911947 7.94767 -2.02287
RightShoulder  -1.17199 -6.69669 30.1816
RightArm  19.1474 9.25858 46.5334
RightForeArm  11.8638 9.52814 8.48106
RightHand  -0.239285 2.61941 -3.67853
LeftUpLeg  -21.8202 -1.43235 -5.69076
LeftLeg  19.5611 -1.023 -0.082813
LeftFoot  -5.27269 0.126504 -1.79069
LeftToes  -8.26734e-010 9.74065e-011 1.64617e-011
282
root  -75.1895 40.3788 2.04292 93.4618 85.7889 89.9716
RightUpLeg  -0.558213 -10.5776 -4.98194
RightLeg  12.6503 -3.57866 0.540491
RightFoot  -18.1162 0.013751 2.30709
RightToes  9.54606e-009 0 -3.6325e-017
Spine  3.92144 3.46518 7.37528
Spine1  5.51157 5.14051 -6.37273
HEad  -18.7259 -5.2023 -8.8653
LeftShoulder1  -0.416501 4.58665 -32.3186
LeftArm  5.79378 23.1536 -37.7142
LeftForeArm  24.2623 -14.7017 -7.60466
LeftHand  -0.103351 8.09491 -2.38886
RightShoulder  -1.10392 -6.57077 29.4768
RightArm  18.8092 11.4599 47.5076
RightForeArm  8.27966 12.1908 7.40982
RightHand  -0.195954 4.00143 -2.6834
LeftUpLeg  -22.0055 -0.425301 -5.64496
LeftLeg  16.4591 -0.443327 0.170278
LeftFoot  -4.85935 0.167968 -2.45403
LeftToes  -8.26734e-010 9.74065e-011 1.64617e-011
283
root  -74.6856 40.3612 2.0818 96.7659 85.6479 93.4011
RightUpLeg  0.765015 -10.8204 -5.35214
RightLeg  12.074 -3.5912 0.772188
RightFoot  -18.0889 -0.00290907 2.0289
RightToes  9.54606e-009 0 -3.6325e-017
Spine  4.18027 3.49256 7.07409
Spine1  5.53826 5.2595 -6.73498
HEad  -18.2192 -5.30016 -8.92122
LeftShoulder1  -0.378347 4.49298 -32.1105
LeftArm  3.7963 23.9263 -37.3327
LeftForeArm  26.1473 -13.6216 -7.86787
LeftHand  -0.109733 7.99934 -2.73884
RightShoulder  -1.13165 -6.67752 29.1292
RightArm  19.9143 13.0914 48.2398
RightForeArm  4.52446 15.8066 6.1588
RightHand  -0.225648 4.76952 -2.862
LeftUpLeg  -22.1783 0.370498 -5.46643
LeftLeg  13.7513 -0.525518 0.0369599
LeftFoot  -3.54296 0.191629 -2.49587
LeftToes  -8.26734e-010 9.74065e-011 1.64617e-011
284
root  -74.1027 40.3198 2.08509 98.3259 85.6661 94.8636
RightUpLeg  1.98236 -10.6896 -5.42788
RightLeg  11.3617 -3.81431 0.742778
RightFoot  -18.0973 0.0043019 2.14404
RightToes  9.54606e-009 0 -3.6325e-017
Spine  3.63791 3.36165 6.83487
Spine1  6.04088 5.19383 -7.05352
HEad  -18.1012 -5.2604 -8.80776
LeftShoulder1  -0.417006 4.58967 -32.2647
LeftArm  2.61798 24.5292 -36.6491
LeftForeArm  27.2591 -13.0739 -7.89087
LeftHand  -0.129084 8.28756 -3.16667
RightShoulder  -1.02492 -6.41296 28.6951
RightArm  20.5582 14.8837 49.1553
RightForeArm  2.61676 18.4686 5.35112
RightHand  -0.307572 5.74498 -3.53247
LeftUpLeg  -22.4629 0.238532 -4.93801
LeftLeg  11.2599 0.360587 -0.0401353
LeftFoot  -2.38201 0.216803 -2.58587
LeftToes  -8.26734e-010 9.74065e-011 1.64617e-011
285
root  -73.4314 40.231 2.06945 96.9516 85.7397 93.4618
RightUpLeg  3.32293 -10.4844 -5.48635
RightLeg  10.7854 -3.77155 0.605225
RightFoot  -18.5258 0.0433033 2.69085
RightToes  9.54606e-009 0 -3.6325e-017
Spine  3.3517 3.3859 6.64824
Spine1  6.30943 5.34946 -7.57147
HEad  -18.3062 -4.68198 -8.64326
LeftShoulder1  -0.408656 4.57572 -31.9864
LeftArm  0.643954 24.8095 -36.4605
LeftForeArm  29.0871 -12.0665 -7.94872
LeftHand  -0.121918 7.89151 -3.41348
RightShoulder  -1.03528 -6.45662 28.5125
RightArm  20.675 15.8927 49.6657
RightForeArm  2.54114 21.51 4.81458
RightHand  -0.328982 6.29159 -3.61087
LeftUpLeg  -22.4772 0.594811 -4.43766
LeftLeg  9.117 2.05164 -0.195092
LeftFoot  -1.51878 0.201101 -2.24131
LeftToes  -8.26734e-010 9.74065e-011 1.64617e-011
286
root  -72.6751 40.1326 2.04475 90.8712 85.8253 87.5678
RightUpLeg  5.12146 -10.4467 -5.75228
RightLeg  10.0843 -3.30255 0.619883
RightFoot  -18.9852 0.0680218 2.94207
RightToes  9.54606e-009 0 -3.6325e-017
Spine  3.45386 3.49181 6.16376
Spine1  6.10469 5.52331 -7.80183
HEad  -18.4338 -2.62504 -8.01983
LeftShoulder1  -0.413999 4.58841 -32.0279
LeftArm  -0.380301 25.117 -35.9094
LeftForeArm  29.5626 -11.663 -7.85229
LeftHand  -0.12883 8.0271 -3.52896
RightShoulder  -0.925319 -6.17217 28.1123
RightArm  20.3342 16.1436 49.9591
RightForeArm  3.84269 24.1739 4.93324
RightHand  -0.344299 5.33169 -4.02811
LeftUpLeg  -21.7831 1.28193 -3.8454
LeftLeg  7.17894 4.52486 -0.543629
LeftFoot  -0.557969 0.156268 -1.6132
LeftToes  -8.26734e-010 9.74065e-011 1.64617e-011
287
root  -71.7826 39.9655 1.95755 80.2794 85.685 77.3127
RightUpLeg  6.97732 -10.7657 -6.53306
RightLeg  10.1069 -2.12448 0.671207
RightFoot  -19.9953 0.115128 3.30933
RightToes  9.54606e-009 0 -3.6325e-017
Spine  3.07717 3.62564 5.83272
Spine1  6.47522 5.86952 -8.46522
HEad  -17.6347 -4.0315 -7.19331
LeftShoulder1  -0.379511 4.50488 -31.7773
LeftArm  -0.591669 25.2337 -35.4481
LeftForeArm  28.9088 -11.4718 -7.8622
LeftHand  -0.133769 8.43803 -3.16385
RightShoulder  -0.904461 -6.10248 28.2257
RightArm  20.7591 16.4755 50.2546
RightForeArm  5.12593 25.8115 5.27239
RightHand  -0.363328 5.99191 -4.03617
LeftUpLeg  -20.6581 1.5511 -3.58459
LeftLeg  6.40641 7.35976 -0.487895
LeftFoot  0.475597 0.143786 -1.38943
LeftToes  -8.26734e-010 9.74065e-011 1.64617e-011
288
root  -70.8246 39.7804 1.83389 68.665 85.2063 66.2829
RightUpLeg  9.23134 -10.9827 -7.61928
RightLeg  9.95197 -0.55892 0.596663
RightFoot  -20.9531 0.198149 4.0423
RightToes  9.54606e-009 0 -3.6325e-017
Spine  3.26503 3.65972 5.17931
Spine1  6.1791 6.07811 -9.10261
HEad  -17.4199 -3.15326 -6.50233
LeftShoulder1  -0.376079 4.49298 -31.8943
LeftArm  -1.11201 25.1673 -34.6747
LeftForeArm  29.4788 -10.9809 -7.88546
LeftHand  -0.122379 7.73698 -3.67176
RightShoulder  -0.871177 -6.00562 28.2229
RightArm  21.5232 15.6309 50.4987
RightForeArm  6.75919 27.6608 5.60739
RightHand  -0.324127 6.40243 -3.52582
LeftUpLeg  -19.659 2.41496 -3.91755
LeftLeg  7.81317 8.81433 -0.123558
LeftFoot  3.07804 -0.0277436 -0.0775236
LeftToes  -8.26734e-010 9.74065e-011 1.64617e-011
289
root  -69.8152 39.6228 1.71544 62.6581 84.024 60.9122
RightUpLeg  11.3445 -10.8315 -9.2464
RightLeg  10.1521 0.784999 0.107262
RightFoot  -21.7617 0.319788 5.11973
RightToes  9.54606e-009 0 -3.6325e-017
Spine  3.20575 3.64329 3.21389
Spine1  6.09308 6.12951 -9.42261
HEad  -17.0678 -2.4461 -5.97983
LeftShoulder1  -0.415463 4.59236 -31.9617
LeftArm  -1.63396 24.0923 -34.0071
LeftForeArm  30.2522 -9.73688 -8.22954
LeftHand  -0.138535 8.17309 -3.69228
RightShoulder  -0.942783 -6.17101 28.7851
RightArm  24.1773 15.1318 50.7282
RightForeArm  6.06038 28.017 5.72974
RightHand  -0.386748 6.24323 -4.19062
LeftUpLeg  -18.8352 4.04506 -5.19351
LeftLeg  10.0719 8.41032 -0.0880437
LeftFoot  5.94797 -0.520366 3.26894
LeftToes  -8.26734e-010 9.74065e-011 1.64617e-011
290
root  -68.7985 39.4802 1.5844 71.4229 82.7089 70.7191
RightUpLeg  12.8929 -10.0535 -11.3715
RightLeg  12.67 0.19408 -0.559814
RightFoot  -22.2693 0.486459 6.64894
RightToes  9.54606e-009 0 -3.6325e-017
Spine  3.66558 3.07795 -0.618705
Spine1  5.89315 5.12807 -7.93177
HEad  -17.417 -1.66255 -5.8005
LeftShoulder1  -0.556974 4.92359 -33.1051
LeftArm  -1.93152 20.9973 -32.942
LeftForeArm  32.006 -7.2596 -8.90036
LeftHand  -0.148132 8.7437 -3.2609
RightShoulder  -0.908046 -6.06507 28.8714
RightArm  25.7286 13.6837 51.3415
RightForeArm  6.75211 27.711 5.62089
RightHand  -0.326634 6.74004 -3.45858
LeftUpLeg  -17.9832 5.65056 -7.83599
LeftLeg  13.6741 6.39632 0.732685
LeftFoot  3.32397 -0.582295 4.35055
LeftToes  -8.26734e-010 9.74065e-011 1.64617e-011
